<svg version="1" xmlns="http://www.w3.org/2000/svg" width="341.333" height="341.333" viewBox="0 0 256.000000 256.000000"><path d="M35.3 5c-6 1.3-10 3.6-14.9 8.6C11.6 22.7 5 36.3 2.5 50.7 0 64.8-.5 89.4 1.4 103.6c1.7 13.3 3.3 18.5 7.4 25.4 1.5 2.5 3 6.3 3.3 8.5l.6 4 .1-3.8c.2-3.5.3-3.7 2.3-2.6 2.7 1.4 3.5.3 4.3-6.5 1.2-9.1 5.6-29.9 7.8-36.6 3.4-10.7 9.5-24.7 12.7-29.3 7.2-10.5 27.2-25.5 51.2-38.6 5.5-3 6.5-4 6.4-6-.3-4.6-8.1-8.4-23.1-11.6-9-1.9-32.8-2.9-39.1-1.5zM184.2 5.9C167.4 9 158 13.3 158 18c0 1.1-.6 2-1.2 2-.7 0 1.4 1.3 4.7 2.9 14.7 7 34.2 20 44.7 30 8.5 8 11.4 12.1 16 23.1 6.4 15.4 9 24.9 12.8 47.1 1.2 6.8 2.3 12.5 2.4 12.7.2.1 1.5-.2 2.9-.7 2.5-1 2.6-.9 3 3.2l.4 4.2.1-4.8c.1-3.3 1-6 2.7-8.5 6.3-9.2 9-26.9 8.2-54.1-.7-25.9-3-35.7-11.6-50.6-4.9-8.5-11.3-14.9-17.4-17.6-7.3-3.2-26.9-3.6-41.5-1zM122.3 16.7c1.5.2 3.7.2 5 0 1.2-.2 0-.4-2.8-.4-2.7 0-3.8.2-2.2.4zM105.1 18.1c-6.2 1.2-7.5 2-2.1 1.2 2.5-.3 7.2-.9 10.5-1.3l6-.7-5-.1c-2.7 0-7 .4-9.4.9zM132.8 17.7c1.8.2 4.5.2 6 0s0-.4-3.3-.4-4.5.2-2.7.4zM143.8 18.7c1.2.2 3 .2 4 0 .9-.3-.1-.5-2.3-.4-2.2 0-3 .2-1.7.4zM151.3 19.7c.9.2 2.3.2 3 0 .6-.3-.1-.5-1.8-.5-1.6 0-2.2.2-1.2.5z"/><path d="M66.2 61.9c-6.3 2.2-11.6 6.2-15.7 12-3.8 5.4-4.2 13.3-.9 17.8 4.8 6.7 18.9 9.8 27.5 6.1 4.6-2 11.5-8.2 13.6-12.1 2-3.9 2-11.5 0-15.4-2.2-4.1-7-8-11.5-9.3-5-1.4-6.8-1.2-13 .9zm18.3 4.6c3 2.9 3.2 5.1.6 6-3.8 1.2-9.1-2.4-9.1-6.2 0-1.9.5-2.3 3-2.3 1.9 0 4 .9 5.5 2.5zM176.5 61.1c-14 5.2-16.8 21.7-5.4 31.3 7.8 6.6 17.9 8.7 27.1 5.7 5.4-1.8 9.9-7.1 10.5-12.5.8-6.5-.2-9.2-5.5-14.8-7.8-8.4-19.1-12.5-26.7-9.7zm19.4 5.7c1.4 1 3.4 3.1 4.5 4.6 2.1 2.7 2.1 2.8.2 4.2-3 2.1-5.7 1.7-10.9-1.6-5-3.1-7.1-7.4-4.6-9.1 2-1.4 7.9-.3 10.8 1.9z"/><path d="M115.2 68.1c-13.9 2.7-19.7 11.7-15.4 24.2l1.9 5.7-2.1.5c-1.2.2-6.9 1.3-12.8 2.4-19.1 3.7-35.5 9.8-44.8 16.6-9.5 7-15.3 19.4-16.9 36-2.5 28 8 42.8 42.5 59.9 8.3 4.1 22.3 9.1 28.2 10.1 2.3.4 4.2 1.1 4.2 1.7 0 1.4-7.7.2-17.1-2.8-25.4-8-49-24.6-57.3-40.3-4.4-8.5-10.2-25.5-11.5-34.1l-1-6.5.4 6.4c.6 7.6 6.1 24.7 11.3 34.5 4.6 8.9 12.9 17.3 24.5 25 14 9.2 33.3 17.2 46 19.1l4.7.7v5.3c0 7.2 3.3 13.3 9.1 16.5 8.5 4.8 25.4 2.4 28.9-4 .6-1.1 1.6-5.6 2.2-9.9l1.2-7.9 10.8-2.1c5.9-1.2 12.5-2.9 14.5-3.7 2.1-.8 2.7-1.2 1.3-.9-11.1 2.5-25.2 5.5-26 5.5-.6 0-1-.3-1-.8 0-.4 4.6-1.6 10.3-2.5 22-4 47.9-15 60.7-25.9 4.1-3.5 9.7-8.9 12.4-11.9 3.8-4.1 4.5-4.7 3.3-2.3-2.5 4.9-11.5 14.2-17.8 18.5-7.7 5.2-21.5 12.2-31.4 15.8-4.4 1.7-7.3 3-6.5 3 2.9.1 22.6-8.5 30.9-13.4 10.1-6.1 17.4-12.1 22.2-18.6 7.8-10.3 18.1-35 17.8-42.9 0-1.4-.7.4-1.5 4-.7 3.6-2.3 9.2-3.5 12.5-2.2 6-7.6 17.5-8.3 17.5-.2 0 .4-2 1.2-4.4 1.6-4.2 1.5-5-.6-14.2-3.2-14.2-9.5-26.6-18.3-35.8-7.3-7.8-14.4-12.2-27.1-17-7.5-2.8-26.3-7.6-29.9-7.6-4.6 0-5.1-1.2-3-6.1 3-6.5 2.8-13.9-.5-17.9-3.6-4.3-7.2-5.9-16.7-7.6-9-1.5-13-1.6-19.5-.3zm28.2 7.5c2.7 2 4.2 5.5 3.1 7.3-.3.6-2.9 1.1-5.7 1.1-3.9 0-5.7-.5-7.5-2.2-2.2-2.1-3.1-6.7-1.5-8.2 1.2-1.3 8.8 0 11.6 2zM109 113.9c3.4 2.5 7.6 10 10.7 19 2.1 6.4 2.5 8.9 2.1 15.8-.4 6.9-1 9.3-4.1 15.7-8 16-22 22.9-53.2 25.8-25.8 2.4-35.1-2.5-34.9-18.7 0-12.4 5.7-20.4 25.9-36.8 11-8.9 24.4-17.9 30.1-20.3 8.7-3.7 18.7-3.9 23.4-.5zm47.4-1.9c9.9 1.6 23.2 9.7 42.2 25.6 13 10.8 17.8 16.3 20.5 23.4 3.8 10 1.7 22.5-4.6 26.6-6.9 4.5-31.3 4-51.1-1.2-16.9-4.4-25.1-10.2-30.5-21.7-5.9-12.9-5.6-25.1 1.2-39.7 3.4-7.5 7.1-11.6 11.5-13 3.9-1.1 4-1.1 10.8 0zM105 199.2c0 7-.5 10.8-2.2 15.4l-2.2 6-4.9-.7c-11.8-1.9-22.8-6.4-29.2-12-4.5-4-4.4-6.3.3-9.3 5.8-3.8 23.7-8.3 34-8.5l4.2-.1v9.2zm55.6-7.7c15.8 2.7 27.4 7.6 27.4 11.4 0 2.7-7.3 8.9-14.4 12.2-6.2 2.9-20.5 5.9-27.8 5.9-3.4 0-3.9-.3-3.3-1.8 1.9-4.9 4.5-18.4 4.5-23.5 0-6.7-.4-6.6 13.6-4.2z"/></svg>